<svg width="30.000000000000004" height="30.000000000000004" xmlns="http://www.w3.org/2000/svg" version="1.1" fill="none">

 <g>
  <title>Layer 1</title>
  <g stroke="null" id="svg_1">
   <g stroke="null" id="svg_2">
    <rect stroke="null" id="svg_3" fill="#FC2D2D" rx="15" height="29.21569" width="29.21569" y="0.39216" x="0.39216"/>
   </g>
   <g stroke="null" id="svg_4">
    <path stroke="null" id="svg_5" fill="#FFFFFF" fill-rule="evenodd" d="m8.41363,9.94343c0.49777,0 0.8992,0 0.8992,0c0,0 -0.75738,5.38928 -1.16636,8.2995c-0.08939,0.63608 -0.13588,0.95958 -0.29766,1.20508c-0.13966,0.21194 -0.33811,0.38036 -0.57036,0.48583c-0.2677,0.12154 -0.6059,0.12271 -1.26764,0.12271c-0.49777,0 -0.8992,0 -0.8992,0c0,0 0.75738,-5.38927 1.16636,-8.29949c0.08939,-0.63607 0.13588,-0.95957 0.29766,-1.20507c0.13966,-0.21195 0.33811,-0.38038 0.57036,-0.48583c0.2677,-0.12154 0.6059,-0.12273 1.26764,-0.12273"/>
   </g>
   <g stroke="null" id="svg_6">
    <path stroke="null" id="svg_7" fill="#FFFFFF" fill-rule="evenodd" d="m12.8332,6.46003c0.50112,0 0.90524,0 0.90524,0c0,0 -1.12743,8.00925 -1.65169,11.73351c-0.09302,0.66086 -0.14263,0.99898 -0.30356,1.24488c-0.14002,0.21405 -0.33894,0.38535 -0.5715,0.49297c-0.26682,0.12329 -0.60629,0.12543 -1.26799,0.12543c-0.49778,0 -0.89921,0 -0.89921,0c0,0 1.11643,-8.0093 1.63557,-11.73359c0.09215,-0.66108 0.13918,-0.99677 0.29677,-1.24525c0.13574,-0.21404 0.32892,-0.38525 0.55745,-0.49267c0.26628,-0.12518 0.61314,-0.12528 1.29891,-0.12528"/>
   </g>
   <g stroke="null" id="svg_8">
    <path stroke="null" id="svg_9" fill="#FFFFFF" fill-rule="evenodd" d="m20.20566,9.94343c0.50112,0 0.90524,0 0.90524,0c0,0 -1.12743,8.00925 -1.65169,11.73351c-0.09302,0.66086 -0.14263,0.99898 -0.30356,1.24488c-0.14002,0.21405 -0.33894,0.38535 -0.5715,0.49297c-0.26682,0.12329 -0.60629,0.12543 -1.268,0.12543c-0.49778,0 -0.8992,0 -0.8992,0c0,0 1.11643,-8.0093 1.63557,-11.73359c0.09215,-0.66108 0.13918,-0.99677 0.29677,-1.24526c0.13574,-0.21404 0.32892,-0.38524 0.55745,-0.49267c0.26628,-0.12518 0.61314,-0.12527 1.29891,-0.12527"/>
   </g>
   <g stroke="null" id="svg_10">
    <path stroke="null" id="svg_11" fill="#FFFFFF" fill-rule="evenodd" d="m16.27938,9.94343c0.49777,0 0.8992,0 0.8992,0c0,0 -0.75738,5.38928 -1.16636,8.2995c-0.08939,0.63608 -0.13588,0.95958 -0.29766,1.20508c-0.13966,0.21194 -0.33811,0.38036 -0.57036,0.48583c-0.2677,0.12154 -0.6059,0.12271 -1.26764,0.12271c-0.49778,0 -0.8992,0 -0.8992,0c0,0 0.75737,-5.38927 1.16636,-8.29949c0.08939,-0.63607 0.13588,-0.95957 0.29766,-1.20507c0.13966,-0.21195 0.33811,-0.38038 0.57036,-0.48583c0.2677,-0.12154 0.6059,-0.12273 1.26764,-0.12273"/>
   </g>
   <g stroke="null" id="svg_12">
    <path stroke="null" id="svg_13" fill="#FFFFFF" fill-rule="evenodd" d="m24.14515,9.94343c0.49777,0 0.8992,0 0.8992,0c0,0 -0.75738,5.38928 -1.16636,8.2995c-0.08939,0.63608 -0.13588,0.95958 -0.29766,1.20508c-0.13966,0.21194 -0.33811,0.38036 -0.57036,0.48583c-0.2677,0.12154 -0.6059,0.12271 -1.26764,0.12271c-0.49777,0 -0.8992,0 -0.8992,0c0,0 0.75738,-5.38927 1.16636,-8.29949c0.08939,-0.63607 0.13588,-0.95957 0.29766,-1.20507c0.13966,-0.21195 0.33811,-0.38038 0.57036,-0.48583c0.2677,-0.12154 0.6059,-0.12273 1.26764,-0.12273"/>
   </g>
  </g>
 </g>
</svg>