<?xml version="1.0" encoding="UTF-8" standalone="no"?>
<!-- Generator: Adobe Illustrator 21.0.0, SVG Export Plug-In . SVG Version: 6.00 Build 0)  -->

<svg
   version="1.1"
   id="圖層_1"
   x="0px"
   y="0px"
   width="1000"
   height="228.91219"
   viewBox="0 0 1000 228.91219"
   xml:space="preserve"
   sodipodi:docname="CCTV_2015.svg"
   inkscape:version="1.3.2 (091e20e, 2023-11-25, custom)"
   xmlns:inkscape="http://www.inkscape.org/namespaces/inkscape"
   xmlns:sodipodi="http://sodipodi.sourceforge.net/DTD/sodipodi-0.dtd"
   xmlns="http://www.w3.org/2000/svg"
   xmlns:svg="http://www.w3.org/2000/svg"><defs
   id="defs3" /><sodipodi:namedview
   id="namedview3"
   pagecolor="#ffffff"
   bordercolor="#000000"
   borderopacity="0.25"
   inkscape:showpageshadow="2"
   inkscape:pageopacity="0.0"
   inkscape:pagecheckerboard="0"
   inkscape:deskcolor="#d1d1d1"
   inkscape:zoom="0.74800001"
   inkscape:cx="500"
   inkscape:cy="114.30481"
   inkscape:window-width="1366"
   inkscape:window-height="705"
   inkscape:window-x="-8"
   inkscape:window-y="-8"
   inkscape:window-maximized="1"
   inkscape:current-layer="圖層_1" />
<style
   type="text/css"
   id="style1">
	.st0{fill:#E80413;}
</style>
<path
   d="m 846.3033,0 c -2.30059,0 -4.36694,1.4075976 -5.20913,3.5484877 L 781.66384,154.62167 723.62941,7.0969831 C 721.94502,2.8151979 717.81233,0 713.21114,0 H 454.91623 v 54.501305 c 0,3.091533 2.50615,5.597718 5.59771,5.597718 h 73.88041 V 227.26075 h 60.43542 c 3.0915,0 5.59772,-2.50619 5.59772,-5.59772 V 60.099023 h 69.06853 c 2.28294,0 4.33711,1.386338 5.19123,3.503463 l 66.02332,163.658254 h 78.12868 c 2.28288,0 4.33705,-1.38632 5.19111,-3.50343 L 914.29901,0 Z"
   id="path1"
   style="stroke-width:1.97474" />
<rect
   x="912.16034"
   y="140.19064"
   class="st0"
   width="87.839653"
   height="87.839653"
   id="rect1"
   style="stroke-width:1.97474" />
<path
   d="m 358.42902,168.8641 c -37.23363,0 -68.1357,-24.71578 -68.1357,-54.61957 0,-29.903795 28.53097,-54.145507 63.72586,-54.145507 h 78.11337 c 3.09156,0 5.59772,-2.506154 5.59772,-5.597718 V 0 h -83.71109 c -74.25947,0 -134.45867,51.149038 -134.45867,114.24453 0,63.09549 64.60904,114.66766 138.86851,114.66766 33.06117,0 60.03484,-6.51924 88.27787,-17.45216 l -22.77982,-56.42435 c -21.08711,8.53802 -40.39853,13.82842 -65.49805,13.82842 z"
   id="path2"
   style="stroke-width:1.97474" />
<path
   d="m 138.86851,168.8641 c -37.23363,0 -68.135715,-24.71578 -68.135715,-54.61957 0,-29.903795 28.53097,-54.145507 63.725855,-54.145507 h 78.11338 c 3.09156,0 5.59771,-2.506154 5.59771,-5.597718 V 0 H 134.45865 C 60.199183,0 0,51.149038 0,114.24453 c 0,63.09549 64.609052,114.66766 138.86851,114.66766 33.06117,0 60.03483,-6.51924 88.27786,-17.45216 l -22.77982,-56.42435 c -21.08712,8.53802 -40.39852,13.82842 -65.49804,13.82842 z"
   id="path3"
   style="stroke-width:1.97474" />
</svg>
