<svg width="64" height="64" viewBox="0 0 64 64" fill="none" xmlns="http://www.w3.org/2000/svg">
  <path d="M36.0758 0.260661C29.7982 -0.545494 23.4225 0.528037 17.755 3.34549C12.0876 6.16295 7.38288 10.5978 4.23592 16.0891C1.08897 21.5805 -0.358884 27.8818 0.0754554 34.196C0.509795 40.5103 2.80682 46.5539 6.67604 51.5627C10.5453 56.5714 15.8129 60.3203 21.8128 62.3351C27.8127 64.35 34.2753 64.5405 40.3834 62.8823C46.4915 61.2242 51.9707 57.792 56.1281 53.0197C60.2855 48.2475 62.9344 42.3496 63.7398 36.0718C64.8196 27.6546 62.5117 19.1531 57.3238 12.4374C52.136 5.7216 44.4929 1.34156 36.0758 0.260661Z" fill="#FF6C37"/>
  <path d="M23.1349 34.0232C23.1473 34.0485 23.1681 34.0688 23.1938 34.0804C23.2195 34.0921 23.2484 34.0945 23.2757 34.0872L28.3957 32.9832L26.2421 30.8008L23.1733 33.8696C23.149 33.8859 23.1317 33.9107 23.1246 33.939C23.1175 33.9674 23.1212 33.9974 23.1349 34.0232Z" fill="white"/>
  <path d="M47.1096 12.0391C46.3961 12.0398 45.6918 12.2006 45.0486 12.5095C44.4054 12.8185 43.8398 13.2677 43.3932 13.8242C42.9466 14.3807 42.6306 15.0303 42.4683 15.7251C42.306 16.4199 42.3016 17.1423 42.4555 17.8391C42.6093 18.5358 42.9175 19.1892 43.3573 19.751C43.7971 20.3129 44.3573 20.769 44.9966 21.0857C45.636 21.4024 46.3383 21.5717 47.0517 21.5811C47.7652 21.5904 48.4717 21.4397 49.1192 21.1399L45.8744 17.8951C45.8371 17.8579 45.8076 17.8138 45.7874 17.7652C45.7672 17.7166 45.7569 17.6645 45.7569 17.6119C45.7569 17.5593 45.7672 17.5072 45.7874 17.4586C45.8076 17.41 45.8371 17.3658 45.8744 17.3287L50.1144 13.0919C49.2629 12.4073 48.2022 12.0356 47.1096 12.0391Z" fill="white"/>
  <path d="M50.6966 13.6406L46.7222 17.599L49.839 20.7158C50.0686 20.5545 50.2828 20.3724 50.479 20.1718C51.3332 19.3118 51.8304 18.1605 51.8708 16.949C51.9112 15.7375 51.4917 14.5556 50.6966 13.6406Z" fill="white"/>
  <path d="M42.7444 20.9473H42.674C42.5914 20.9467 42.5088 20.9542 42.4276 20.9697H42.3988C42.3096 20.9889 42.2219 21.0146 42.1364 21.0465L42.0692 21.0785C42.0049 21.1054 41.9428 21.1375 41.8836 21.1745L41.8132 21.2193C41.7358 21.2728 41.663 21.3327 41.5956 21.3985L29.8101 33.1873L31.2693 34.6465L43.7492 23.6929C43.8197 23.631 43.884 23.5624 43.9412 23.4881L43.9956 23.4177C44.0382 23.3552 44.0767 23.29 44.1108 23.2225C44.13 23.1841 44.146 23.1457 44.162 23.1073C44.1835 23.0563 44.2017 23.0039 44.2164 22.9505C44.2164 22.9121 44.2388 22.8737 44.2484 22.8353C44.2642 22.7561 44.2749 22.6759 44.2804 22.5953V22.4897C44.2804 22.4321 44.2804 22.3745 44.2804 22.3169C44.2804 22.2593 44.2804 22.2401 44.2644 22.2017C44.2053 21.8997 44.0578 21.6221 43.8408 21.4039C43.6238 21.1857 43.3469 21.0368 43.0452 20.9761H42.9844C42.9052 20.9609 42.825 20.9512 42.7444 20.9473Z" fill="white"/>
  <path d="M26.7925 30.2341L29.2117 32.6405L41.0293 20.8229C41.4138 20.447 41.9149 20.2133 42.45 20.1605C40.3605 18.5605 38.0821 18.9797 26.7925 30.2341Z" fill="white"/>
  <path d="M44.415 24.1543L44.271 24.2951L31.791 35.2455L33.9126 37.3639C39.1734 32.3879 43.8422 27.6487 44.415 24.1543Z" fill="white"/>
  <path d="M13.2855 49.8088C13.292 49.8315 13.3053 49.8516 13.3236 49.8665C13.342 49.8814 13.3644 49.8903 13.3879 49.892L18.8279 50.2664L15.7783 47.2168L13.3111 49.6808C13.2951 49.6975 13.2842 49.7184 13.2797 49.7411C13.2752 49.7637 13.2772 49.7872 13.2855 49.8088Z" fill="white"/>
  <path d="M16.3477 46.6504L19.5636 49.8664C19.6018 49.9072 19.6529 49.9336 19.7083 49.9412C19.7636 49.9487 19.8199 49.937 19.8676 49.908C19.9175 49.8832 19.9572 49.8419 19.98 49.7911C20.0027 49.7404 20.0072 49.6832 19.9924 49.6296L19.4516 47.3192C19.4166 47.1694 19.4325 47.0123 19.4969 46.8726C19.5612 46.7329 19.6703 46.6187 19.8068 46.548C25.4452 43.7224 29.9924 40.8136 33.33 37.908L31.09 35.668L26.29 36.7016L16.3477 46.6504Z" fill="white"/>
  <path d="M30.4023 34.9884L29.1991 33.7852L27.5351 35.446C27.5232 35.4603 27.5166 35.4784 27.5166 35.4972C27.5166 35.5159 27.5232 35.534 27.5351 35.5484C27.5429 35.5654 27.5566 35.5791 27.5737 35.5867C27.5908 35.5944 27.6101 35.5955 27.6279 35.59L30.4023 34.9884Z" fill="white"/>
  <path d="M50.8087 16.221C50.7923 16.1707 50.7653 16.1244 50.7295 16.0853C50.6937 16.0463 50.65 16.0153 50.6013 15.9946C50.5526 15.9738 50.4999 15.9637 50.447 15.9649C50.394 15.9662 50.342 15.9788 50.2943 16.0018C50.2466 16.0248 50.2044 16.0578 50.1705 16.0985C50.1366 16.1392 50.1118 16.1867 50.0978 16.2378C50.0838 16.2889 50.0808 16.3424 50.0892 16.3947C50.0976 16.447 50.117 16.4969 50.1463 16.541C50.2419 16.7335 50.2798 16.9495 50.2553 17.163C50.2309 17.3765 50.1453 17.5783 50.0087 17.7442C49.9638 17.7984 49.9352 17.8643 49.9263 17.9341C49.9174 18.0039 49.9285 18.0748 49.9584 18.1385C49.9882 18.2022 50.0356 18.2561 50.0949 18.294C50.1542 18.3318 50.2231 18.352 50.2935 18.3522C50.3478 18.3516 50.4014 18.3393 50.4506 18.3161C50.4997 18.2929 50.5433 18.2594 50.5783 18.2178C50.8047 17.9424 50.9469 17.6076 50.9878 17.2534C51.0287 16.8992 50.9665 16.5407 50.8087 16.221Z" fill="#FF6C37"/>
</svg>
