<svg width="192" height="192" viewBox="0 0 192 192" fill="none" xmlns="http://www.w3.org/2000/svg">
<g clip-path="url(#clip0_89_94)">
<g clip-path="url(#clip1_89_94)">
<path d="M96 192C149.019 192 192 149.019 192 96C192 42.9807 149.019 0 96 0C42.9807 0 0 42.9807 0 96C0 149.019 42.9807 192 96 192Z" fill="#0540AD"/>
<path d="M96 192C149.019 192 192 149.019 192 96C192 42.9807 149.019 0 96 0C42.9807 0 0 42.9807 0 96C0 149.019 42.9807 192 96 192Z" fill="url(#paint0_linear_89_94)"/>
<path d="M54.599 49.5358C54.599 49.5233 54.5843 49.5163 54.5744 49.524C45.8956 56.3275 39.3699 64.8603 35.2502 74.875C31.1267 84.8996 29.8579 95.419 31.6342 106.248C33.4105 117.015 37.8511 126.73 45.0198 135.021C52.1247 143.313 61.006 149.439 71.4736 153.337C81.9408 157.236 93.0425 158.226 104.525 156.493L150.153 149.44C150.599 149.371 150.903 148.953 150.83 148.508L139.228 77.0929C139.156 76.6529 138.744 76.3531 138.303 76.4206L85.9852 84.4657C85.5395 84.5342 85.2352 84.9531 85.3075 85.3982L89.1705 109.166C89.2419 109.606 89.6547 109.906 90.095 109.838L113.88 106.184C114.32 106.117 114.733 106.416 114.804 106.856L117.906 125.861C117.978 126.305 117.675 126.724 117.229 126.794L100.972 129.328C94.8822 130.257 89.0457 129.638 83.4633 127.472C77.8806 125.306 73.1228 121.903 69.3801 117.386C65.5737 112.869 63.1631 107.547 62.2115 101.669C61.2598 95.7281 61.8944 89.9736 64.0512 84.5281C66.208 79.083 69.6339 74.442 74.2646 70.6673C78.8956 66.9547 84.288 64.5412 90.3145 63.6132L135.056 56.684C135.501 56.6152 135.805 56.1969 135.733 55.7524L131.615 30.2521C131.543 29.8116 131.13 29.5111 130.689 29.5792L85.0492 36.634C73.5776 38.4267 63.3091 42.7518 54.6233 49.5476C54.6134 49.5553 54.599 49.5483 54.599 49.5358Z" fill="#FAF9F5"/>
</g>
</g>
<defs>
<linearGradient id="paint0_linear_89_94" x1="96" y1="0" x2="94.8557" y2="203.105" gradientUnits="userSpaceOnUse">
<stop offset="0.07" stop-color="#002253"/>
<stop offset="0.31" stop-color="#0B2E79"/>
<stop offset="0.46" stop-color="#0540AD"/>
<stop offset="1" stop-color="#84C1FA"/>
</linearGradient>
<clipPath id="clip0_89_94">
<rect width="192" height="192" fill="white"/>
</clipPath>
<clipPath id="clip1_89_94">
<rect width="192" height="192" fill="white"/>
</clipPath>
</defs>
</svg>
