<?xml version="1.0" encoding="UTF-8"?>
<svg xmlns="http://www.w3.org/2000/svg" version="1.1" viewBox="0 0 512 512">
  <defs>
    <style>
      .cls-1 {
        fill: #fff;
        stroke: #000;
        stroke-miterlimit: 10;
        stroke-width: 3px;
      }

      .cls-2 {
        fill: #0045a8;
      }

      .cls-3 {
        fill: #3fa9f5;
      }
    </style>
  </defs>
  <!-- Generator: Adobe Illustrator 28.7.5, SVG Export Plug-In . SVG Version: 1.2.0 Build 176)  -->
  <g>
    <g id="_图层_1" data-name="图层_1">
      <g>
        <path class="cls-3" d="M302.3,482.5c-29.2,0-52.9-23.7-52.9-52.9s3.7-22.5,10.6-31.7l6-8h-72.1c-14,0-25.5-11.4-25.5-25.5v-72.1l-8,6c-9.2,6.9-20.2,10.6-31.7,10.6-29.2,0-52.9-23.7-52.9-52.9s23.7-52.9,52.9-52.9,22.5,3.7,31.7,10.6l8,6v-72.1c0-14,11.4-25.5,25.5-25.5h72.1l-6-8c-6.9-9.2-10.6-20.2-10.6-31.7,0-29.2,23.7-52.9,52.9-52.9s52.9,23.7,52.9,52.9-3.7,22.5-10.6,31.7l-6,8h72.1c14,0,25.5,11.4,25.5,25.5v53c-9.1-4.9-19.2-7.5-29.7-7.5-34.7,0-62.9,28.2-62.9,62.9s28.2,62.9,62.9,62.9,20.6-2.6,29.7-7.5v53c0,14-11.4,25.5-25.5,25.5h-72.1l6,8c6.9,9.2,10.6,20.2,10.6,31.7,0,29.2-23.7,52.9-52.9,52.9Z"/>
        <path class="cls-2" d="M302.3,34.5c26.4,0,47.9,21.5,47.9,47.9s-3.3,20.4-9.6,28.7l-12,16h82.2c11.3,0,20.5,9.2,20.5,20.5v45.2c-7.8-3.1-16.1-4.6-24.7-4.6-37.4,0-67.9,30.4-67.9,67.9s30.4,67.9,67.9,67.9,16.9-1.6,24.7-4.6v45.2c0,11.3-9.2,20.5-20.5,20.5h-82.2l12,16c6.3,8.3,9.6,18.3,9.6,28.7,0,26.4-21.5,47.9-47.9,47.9s-47.9-21.5-47.9-47.9,3.3-20.4,9.6-28.7l12-16h-82.2c-11.3,0-20.5-9.2-20.5-20.5v-82.2l-16,12c-8.3,6.3-18.3,9.6-28.7,9.6-26.4,0-47.9-21.5-47.9-47.9s21.5-47.9,47.9-47.9,20.4,3.3,28.7,9.6l16,12v-82.2c0-11.3,9.2-20.5,20.5-20.5h82.2l-12-16c-6.3-8.3-9.6-18.3-9.6-28.7,0-26.4,21.5-47.9,47.9-47.9M302.3,24.5c-32,0-57.9,25.9-57.9,57.9s4.3,25,11.6,34.7h-62.1c-16.8,0-30.5,13.6-30.5,30.5v62.1c-9.7-7.3-21.7-11.6-34.7-11.6-32,0-57.9,25.9-57.9,57.9s25.9,57.9,57.9,57.9,25-4.3,34.7-11.6v62.1c0,16.8,13.6,30.5,30.5,30.5h62.1c-7.3,9.7-11.6,21.7-11.6,34.7,0,32,25.9,57.9,57.9,57.9s57.9-25.9,57.9-57.9-4.3-25-11.6-34.7h62.1c16.8,0,30.5-13.6,30.5-30.5v-62.1c-9.7,7.3-21.7,11.6-34.7,11.6-32,0-57.9-25.9-57.9-57.9s25.9-57.9,57.9-57.9,25,4.3,34.7,11.6v-62.1c0-16.8-13.6-30.5-30.5-30.5h-62.1c7.3-9.7,11.6-21.7,11.6-34.7,0-32-25.9-57.9-57.9-57.9h0Z"/>
      </g>
      <path class="cls-1" d="M316.5,232.5"/>
    </g>
  </g>
</svg>