<?xml version="1.0" encoding="UTF-8"?>
<svg xmlns="http://www.w3.org/2000/svg" version="1.1" viewBox="0 0 512 512">
  <defs>
    <style>
      .cls-1 {
        fill: #fff;
        stroke: #000;
        stroke-miterlimit: 10;
        stroke-width: 3px;
      }

      .cls-2 {
        fill: #0045a8;
      }
    </style>
  </defs>
  <!-- Generator: Adobe Illustrator 28.7.5, SVG Export Plug-In . SVG Version: 1.2.0 Build 176)  -->
  <g>
    <g id="_图层_1" data-name="图层_1">
      <path class="cls-2" d="M302.3,38.5c24.2,0,43.9,19.7,43.9,43.9s-3,18.7-8.8,26.3l-16.8,22.4h90.2c9.1,0,16.5,7.4,16.5,16.5v39.6c-6.6-2-13.6-3-20.7-3-39.6,0-71.9,32.2-71.9,71.9s32.2,71.9,71.9,71.9,14.1-1,20.7-3v39.6c0,9.1-7.4,16.5-16.5,16.5h-90.2l16.8,22.4c5.7,7.6,8.8,16.7,8.8,26.3,0,24.2-19.7,43.9-43.9,43.9s-43.9-19.7-43.9-43.9,3-18.7,8.8-26.3l16.8-22.4h-90.2c-9.1,0-16.5-7.4-16.5-16.5v-90.2l-22.4,16.8c-7.6,5.7-16.7,8.8-26.3,8.8-24.2,0-43.9-19.7-43.9-43.9s19.7-43.9,43.9-43.9,18.7,3,26.3,8.8l22.4,16.8v-90.2c0-9.1,7.4-16.5,16.5-16.5h90.2l-16.8-22.4c-5.7-7.6-8.8-16.7-8.8-26.3,0-24.2,19.7-43.9,43.9-43.9M302.3,24.5c-32,0-57.9,25.9-57.9,57.9s4.3,25,11.6,34.7h-62.1c-16.8,0-30.5,13.6-30.5,30.5v62.1c-9.7-7.3-21.7-11.6-34.7-11.6-32,0-57.9,25.9-57.9,57.9s25.9,57.9,57.9,57.9,25-4.3,34.7-11.6v62.1c0,16.8,13.6,30.5,30.5,30.5h62.1c-7.3,9.7-11.6,21.7-11.6,34.7,0,32,25.9,57.9,57.9,57.9s57.9-25.9,57.9-57.9-4.3-25-11.6-34.7h62.1c16.8,0,30.5-13.6,30.5-30.5v-62.1c-9.7,7.3-21.7,11.6-34.7,11.6-32,0-57.9-25.9-57.9-57.9s25.9-57.9,57.9-57.9,25,4.3,34.7,11.6v-62.1c0-16.8-13.6-30.5-30.5-30.5h-62.1c7.3-9.7,11.6-21.7,11.6-34.7,0-32-25.9-57.9-57.9-57.9h0Z"/>
      <path class="cls-1" d="M316.5,232.5"/>
    </g>
  </g>
</svg>